<?xml version="1.0" encoding="UTF-8"?>
<svg width="22px" height="22px" viewBox="0 0 22 22" version="1.1" xmlns="http://www.w3.org/2000/svg" xmlns:xlink="http://www.w3.org/1999/xlink">
    <!-- Generator: Sketch 64 (93537) - https://sketch.com -->
    <title>logo-instagram</title>
    <desc>Created with Sketch.</desc>
    <g id="_SYMBOLS" stroke="none" stroke-width="1" fill="none" fill-rule="evenodd">
        <g id="Footer" transform="translate(-1067.000000, -244.000000)" fill="#595959" fill-rule="nonzero">
            <g id="logo-instagram" transform="translate(1067.000000, 244.000000)">
                <path d="M15.5831696,1.83316964 C18.1115214,1.84072023 20.1592798,3.88847861 20.1668304,6.41683036 L20.1668304,15.5831696 C20.1592798,18.1115214 18.1115214,20.1592798 15.5831696,20.1668304 L6.41683036,20.1668304 C3.88847861,20.1592798 1.84072023,18.1115214 1.83316964,15.5831696 L1.83316964,6.41683036 C1.84072023,3.88847861 3.88847861,1.84072023 6.41683036,1.83316964 L15.5831696,1.83316964 M15.5831696,0 L6.41683036,0 C2.8875,0 0,2.8875 0,6.41683036 L0,15.5831696 C0,19.1125 2.8875,22 6.41683036,22 L15.5831696,22 C19.1125,22 22,19.1125 22,15.5831696 L22,6.41683036 C22,2.8875 19.1125,0 15.5831696,0 Z" id="Shape"></path>
                <path d="M16.9581696,6.41683353 C16.1987781,6.41683353 15.5831696,5.80122189 15.5831696,5.04183036 C15.5831696,4.28243883 16.1987781,3.66683036 16.9581696,3.66683036 C17.7175612,3.66683036 18.3331728,4.28243883 18.3331728,5.04183036 C18.3339541,5.40674296 18.1893404,5.75693557 17.9313076,6.01496834 C17.6732749,6.27300111 17.3230822,6.41761484 16.9581696,6.41683353 L16.9581696,6.41683353 Z" id="Path"></path>
                <path d="M11,7.33316964 C12.4830944,7.33316964 13.8201538,8.22656418 14.3877095,9.59676477 C14.9552652,10.9669654 14.6415467,12.5441345 13.5928406,13.5928406 C12.5441345,14.6415467 10.9669654,14.9552652 9.59676477,14.3877095 C8.22656418,13.8201538 7.33316964,12.4830944 7.33316964,11 C7.33533489,8.97576307 8.97576307,7.33533489 11,7.33316964 M11,5.5 C7.96243388,5.5 5.5,7.96243388 5.5,11 C5.5,14.0375661 7.96243388,16.5 11,16.5 C14.0375661,16.5 16.5,14.0375661 16.5,11 C16.5,9.54130931 15.9205374,8.14236278 14.8890873,7.1109127 C13.8576372,6.07946262 12.4586907,5.5 11,5.5 Z" id="Shape"></path>
            </g>
        </g>
    </g>
</svg>