<?xml version="1.0" encoding="UTF-8"?>
<svg width="22px" height="22px" viewBox="0 0 22 22" version="1.1" xmlns="http://www.w3.org/2000/svg" xmlns:xlink="http://www.w3.org/1999/xlink">
    <!-- Generator: Sketch 64 (93537) - https://sketch.com -->
    <title>logo-linkedin</title>
    <desc>Created with Sketch.</desc>
    <g id="_SYMBOLS" stroke="none" stroke-width="1" fill="none" fill-rule="evenodd">
        <g id="Footer" transform="translate(-1161.000000, -244.000000)" fill="#595959" fill-rule="nonzero">
            <g id="logo-linkedin" transform="translate(1161.000000, 244.000000)">
                <path d="M20.2404911,0 L1.87982143,0 C0.8765625,0 0,0.721875 0,1.71334821 L0,20.1147768 C0,21.1116518 0.8765625,22 1.87982143,22 L20.2350893,22 C21.24375,22 22.0000339,21.1057589 22.0000339,20.1147768 L22.0000339,1.71334821 C22.0058929,0.721875 21.24375,0 20.2404911,0 Z M6.81950893,18.3380804 L3.6678125,18.3380804 L3.6678125,8.53875 L6.81950893,8.53875 L6.81950893,18.3380804 Z M5.35267857,7.04883929 L5.33008929,7.04883929 C4.32142857,7.04883929 3.66830357,6.29799107 3.66830357,5.35808036 C3.66830357,4.40098214 4.33861607,3.6678125 5.36986607,3.6678125 C6.40111607,3.6678125 7.03214286,4.39558036 7.05473214,5.35808036 C7.05424107,6.29799107 6.40111607,7.04883929 5.35267857,7.04883929 Z M18.3380804,18.3380804 L15.1863839,18.3380804 L15.1863839,12.98 C15.1863839,11.6963393 14.7277232,10.8192857 13.5874554,10.8192857 C12.7162946,10.8192857 12.2006696,11.4085714 11.9713393,11.9826339 C11.8854018,12.1888839 11.8623214,12.4697768 11.8623214,12.7565625 L11.8623214,18.3380804 L8.710625,18.3380804 L8.710625,8.53875 L11.8623214,8.53875 L11.8623214,9.90245536 C12.3209821,9.24933036 13.0374554,8.30941964 14.7046429,8.30941964 C16.7735268,8.30941964 18.3385714,9.673125 18.3385714,12.6131696 L18.3380804,18.3380804 Z" id="Shape"></path>
            </g>
        </g>
    </g>
</svg>