<svg xmlns="http://www.w3.org/2000/svg" xmlns:xlink="http://www.w3.org/1999/xlink" width="40" height="40" viewBox="0 0 40 40"><image overflow="visible" opacity=".1" width="43" height="40" xlink:href="503E00AB.png" transform="translate(-1 1)"/><path fill="#FFF" d="M4.1 14c.7-.5 1.8-1.4 3.3-2.8 1.5-1.3 2.7-2.3 3.7-2.9 1.3-.7 2.4-1 3.5-.7.5.1 1 .5 1.4 1.1.4.6.8 1.2 1 1.9.2.6.5 2.1.9 4.5.1.4.1 1 .2 2 .1.9.2 1.7.3 2.3.1.6.3 1.3.5 2 .3.7.6 1.3 1 1.8.8.8 1.6 1 2.4.4.5-.4 1.2-1.3 1.9-2.7.9-1.7 1.3-3 1.4-3.9.1-1.4-.1-2.3-.7-2.7-.6-.4-1.6-.6-3.1-.4.3-.9.7-1.7 1.2-2.5s1.1-1.4 1.6-1.9c.6-.5 1.2-.9 1.8-1.3.6-.4 1.1-.7 1.6-.8.4-.2.8-.3 1.1-.3 2.5-.4 4.2 0 5.1 1.2.7.9.9 2.1.6 3.6-.3 1.3-1 3.4-2.3 6.2-1.2 2.8-2.8 5.5-4.7 8-2.2 2.9-4.4 5.1-6.8 6.5-.6.4-1.3.7-2.1.9-.8.2-1.5.2-2.3 0-1.1-.5-2-1.6-2.8-3.4-.4-.9-.9-2.7-1.6-5.4-.7-2.6-1.1-4.3-1.4-5.1-.1-.2-.2-.6-.3-1.1-.1-.5-.3-.9-.4-1.3-.1-.4-.3-.7-.5-1.1-.3-.5-.7-.8-1.1-.8-.4 0-1 .1-1.6.3-.6.2-1.1.3-1.5.2-.2 0-.4-.2-.6-.5-.2-.3-.4-.6-.7-.7V14z"/></svg>