<svg xmlns="http://www.w3.org/2000/svg" xmlns:xlink="http://www.w3.org/1999/xlink" width="40" height="40" viewBox="0 0 40 40"><image overflow="visible" opacity=".1" width="38" height="46" xlink:href="8DF66D4B.png" transform="translate(2 -1)"/><path fill="#2fb5d2" d="M18.7 5.1c-5.3.5-10.6 4.9-10.9 11-.1 3.8.9 6.6 4.5 7.4 1.6-2.7-.5-3.3-.8-5.3-1.3-8.1 9.4-13.7 15-8 3.9 3.9 1.3 16-4.9 14.8-6-1.2 2.9-10.8-1.8-12.7-3.9-1.5-5.9 4.7-4.1 7.8-1.1 5.3-3.4 10.3-2.5 17 3.1-2.2 4.1-6.5 4.9-10.9 1.5.9 2.4 1.9 4.3 2.1 7.2.6 11.2-7.2 10.3-14.4-.9-6.4-7.2-9.6-14-8.8z"/></svg>