<svg xmlns="http://www.w3.org/2000/svg" xmlns:xlink="http://www.w3.org/1999/xlink" width="40" height="40" viewBox="0 0 40 40"><image overflow="visible" opacity=".1" width="42" height="36" xlink:href="43D69FB1.png" transform="translate(1 3)"/><path fill="#2fb5d2" d="M25.7 8h1.4l.5.1.9.3c.3.1.5.2.8.4.3.1.5.2.7.4.2.1.4.3.6.5.2.2.4.2.8.1.3-.1.7-.2 1.1-.3.4-.1.8-.3 1.2-.5.4-.2.6-.3.7-.3.1 0 .1-.1.1-.1v.1s0 .3-.2.6l-.6.9c-.2.3-.5.6-.6.7-.2.2-.3.3-.4.3l-.2.2-.1.1h.2l.7-.2c.5-.1 1-.2 1.4-.4.5-.2.7-.2.7-.2h.3s-.1.2-.3.5c-.2.3-.3.4-.4.5l-.1.1-.6.6c-.3.3-.7.7-1 .9-.3.3-.5.6-.5 1s0 .8-.1 1.3c0 .5-.1 1-.2 1.6-.1.6-.2 1.2-.5 2-.2.7-.5 1.4-.7 2.1-.3.7-.6 1.3-.9 1.9s-.6 1-.9 1.4c-.3.4-.5.7-.8 1.1-.3.3-.6.7-1 1.1-.4.4-.7.6-.7.7 0 0-.2.2-.5.4-.3.3-.6.5-1 .8-.3.3-.7.5-1 .6-.3.2-.6.4-1.1.6-.4.2-.9.4-1.3.6-.5.2-1 .4-1.5.5-.5.2-1 .3-1.5.4-.5.1-1.1.2-1.7.2l-.9.1h-2.4c-.1 0-.5-.1-1.1-.1-.6-.1-1.1-.2-1.5-.3s-.9-.3-1.6-.5c-.7-.2-1.3-.5-1.8-.8-.5-.3-.8-.4-1-.5-.1-.1-.3-.1-.4-.2l-.2-.1h1.9c.4 0 .8-.1 1.2-.1.4-.1.9-.2 1.5-.3.6-.2 1.1-.3 1.6-.5s.8-.4 1-.5c.2-.1.5-.3.9-.6l.6-.4h-.6c-.1 0-.3 0-.6-.1l-.9-.3c-.3-.1-.6-.3-1-.5s-.5-.4-.7-.5l-.5-.5c-.2-.2-.4-.5-.6-.7-.2-.2-.3-.5-.5-.9l-.2-.5h1.2c.4 0 .7 0 .9-.1.2 0 .3 0 .3-.1h.3-.5s-.1 0-.2-.1-.3-.1-.7-.3c-.4-.2-.7-.3-.9-.5-.2-.2-.4-.3-.7-.5l-.7-.7c-.2-.3-.5-.7-.7-1-.2-.4-.3-.8-.4-1.1-.1-.4-.2-.7-.2-1.1v-.6l.4.2c.3.1.6.2 1 .3s.7.1.7.1h.3l-.2-.2c-.1-.1-.3-.3-.5-.4-.2-.2-.3-.4-.5-.6s-.3-.4-.4-.6c-.1-.5-.3-.8-.4-1.1-.1-.3-.2-.7-.3-1-.1-.3-.1-.7-.1-1v-.9c0-.2.1-.5.2-.8s.2-.6.3-1l.2-.5.4.4c.2.3.5.6.8.9.5.3.7.5.7.5l.1.1.5.5c.3.2.7.5 1.2.9s1 .7 1.6 1c.6.3 1.2.6 1.9.9.7.3 1.2.4 1.4.5.3.1.7.2 1.4.3.7.1 1.2.2 1.5.2s.6.1.7.1h.2V15c0-.2-.1-.5-.1-.9s0-.8.1-1.1c.1-.3.2-.7.3-1 .1-.3.2-.6.4-.8.1-.2.3-.4.5-.7.2-.3.4-.5.8-.8.3-.3.7-.5 1.1-.8.4-.2.8-.4 1.1-.5.3-.1.6-.2.8-.2s.3-.2.3-.2z"/></svg>