<svg xmlns="http://www.w3.org/2000/svg" xmlns:xlink="http://www.w3.org/1999/xlink" width="40" height="40" viewBox="0 0 40 40"><image overflow="visible" opacity=".1" width="42" height="42" xlink:href="970B07D0.png"/><path fill="#FFF" d="M5.9 30.4c0-1 .4-1.9 1.1-2.7.7-.7 1.6-1.1 2.7-1.1s1.9.4 2.7 1.1c.7.7 1.1 1.6 1.1 2.7s-.4 2-1.1 2.7-1.6 1.1-2.7 1.1-1.9-.4-2.7-1.1c-.7-.8-1.1-1.7-1.1-2.7zm0-9.5v-5.4c3.4 0 6.5.8 9.4 2.5s5.2 4 6.8 6.8c1.7 2.9 2.5 6 2.5 9.4h-5.5c0-3.7-1.3-6.8-3.9-9.4-2.5-2.6-5.6-3.9-9.3-3.9zm0-9.7V5.8c3.8 0 7.5.8 11 2.3s6.5 3.5 9.1 6.1 4.6 5.6 6.1 9.1 2.3 7.2 2.3 11h-5.5c0-3.1-.6-6.1-1.8-8.9-1.2-2.8-2.8-5.3-4.9-7.3s-4.5-3.7-7.3-4.9-5.9-2-9-2z"/></svg>