<svg xmlns="http://www.w3.org/2000/svg" xmlns:xlink="http://www.w3.org/1999/xlink" width="40" height="40" viewBox="0 0 40 40"><image overflow="visible" opacity=".1" width="42" height="42" xlink:href="1BA08623.png"/><path fill="#FFF" d="M28.9 5.6H11.1C8 5.6 5.6 8 5.6 11.1v17.7c0 3.1 2.5 5.5 5.5 5.5h17.7c3.1 0 5.5-2.5 5.5-5.5V11.1c.1-3.1-2.3-5.5-5.4-5.5zm1.6 3.3h.6v4.9h-4.9V8.9h4.3zM15.9 17c.9-1.2 2.5-2.1 4.1-2.1s3.2.9 4.1 2.1c.6.9 1 1.8 1 3 0 2.8-2.3 5.1-5.1 5.1-2.7 0-5.1-2.2-5.1-5.1 0-1.1.4-2.1 1-3zm15.7 11.9c0 1.5-1.2 2.7-2.7 2.7H11.1c-1.5 0-2.7-1.2-2.7-2.7V17h4.3c-.4.9-.6 2-.6 3 0 4.3 3.6 7.9 7.9 7.9s7.9-3.6 7.9-7.9c0-1-.2-2.1-.6-3h4.3v11.9z"/></svg>