<?xml version="1.0" encoding="UTF-8"?>
<svg width="27px" height="25px" viewBox="0 0 27 25" version="1.1" xmlns="http://www.w3.org/2000/svg" xmlns:xlink="http://www.w3.org/1999/xlink">
    <!-- Generator: Sketch 64 (93537) - https://sketch.com -->
    <title>cart2</title>
    <desc>Created with Sketch.</desc>
    <g id="_SYMBOLS" stroke="none" stroke-width="1" fill="none" fill-rule="evenodd">
        <g id="Nav/Desktop" transform="translate(-1231.000000, -70.000000)" fill="#000000" fill-rule="nonzero">
            <g id="Group-2" transform="translate(1231.000000, 60.000000)">
                <g id="cart2" transform="translate(0.000000, 10.000000)">
                    <path d="M0,0.875 C0,0.391750844 0.391750844,0 0.875,0 L3.5,0 C3.90159916,0 4.25156301,0.273587855 4.34875,0.66325 L5.0575,3.5 L25.375,3.5 C25.6443162,3.5000744 25.8985941,3.62416558 26.0643638,3.83641918 C26.2301335,4.04867279 26.2889245,4.32543893 26.22375,4.58675 L23.59875,15.08675 C23.501563,15.4764121 23.1515992,15.75 22.75,15.75 L7,15.75 C6.59840084,15.75 6.24843699,15.4764121 6.15125,15.08675 L2.8175,1.75 L0.875,1.75 C0.391750844,1.75 0,1.35824916 0,0.875 Z M5.495,5.25 L7.6825,14 L22.0675,14 L24.255,5.25 L5.495,5.25 Z M8.75,19.25 C7.78350169,19.25 7,20.0335017 7,21 C7,21.9664983 7.78350169,22.75 8.75,22.75 C9.71649831,22.75 10.5,21.9664983 10.5,21 C10.5,20.0335017 9.71649831,19.25 8.75,19.25 Z M5.25,21 C5.25,19.0670034 6.81700338,17.5 8.75,17.5 C10.6829966,17.5 12.25,19.0670034 12.25,21 C12.25,22.9329966 10.6829966,24.5 8.75,24.5 C6.81700338,24.5 5.25,22.9329966 5.25,21 Z M21,19.25 C20.0335017,19.25 19.25,20.0335017 19.25,21 C19.25,21.9664983 20.0335017,22.75 21,22.75 C21.9664983,22.75 22.75,21.9664983 22.75,21 C22.75,20.0335017 21.9664983,19.25 21,19.25 Z M17.5,21 C17.5,19.0670034 19.0670034,17.5 21,17.5 C22.9329966,17.5 24.5,19.0670034 24.5,21 C24.5,22.9329966 22.9329966,24.5 21,24.5 C19.0670034,24.5 17.5,22.9329966 17.5,21 Z" id="Shape"></path>
                </g>
            </g>
        </g>
    </g>
</svg>