<svg xmlns="http://www.w3.org/2000/svg" xmlns:xlink="http://www.w3.org/1999/xlink" width="40" height="40" viewBox="0 0 40 40"><image overflow="visible" opacity=".1" width="46" height="34" xlink:href="CE61D04B.png" transform="translate(-2 4)"/><path fill="#FFF" d="M14 18.1v4.2h5.7c-.9 2.7-2.3 4.2-5.7 4.2-3.4 0-6.1-2.8-6.1-6.2S10.5 14 14 14c1.8 0 3 .6 4.1 1.5.9-.9.8-1 3-3.1-1.9-1.7-4.3-2.7-7.1-2.7-5.8 0-10.5 4.7-10.5 10.5S8.2 30.7 14 30.7c8.7 0 10.8-7.5 10.1-12.6H14zm18.9.3v-3.6h-2.6v3.6h-3.7V21h3.7v3.7h2.6V21h3.6v-2.6h-3.6z"/></svg>