<svg xmlns="http://www.w3.org/2000/svg" viewBox="0 0 27 25"><path d="M0 .875C0 .392.392 0 .875 0H3.5c.402 0 .752.274.849.663L5.057 3.5h20.318a.875.875 0 01.849 1.087l-2.625 10.5a.875.875 0 01-.849.663H7a.875.875 0 01-.849-.663L2.818 1.75H.874A.875.875 0 010 .875zM5.495 5.25L7.683 14h14.384l2.188-8.75H5.495zm3.255 14a1.75 1.75 0 100 3.5 1.75 1.75 0 000-3.5zM5.25 21a3.5 3.5 0 117 0 3.5 3.5 0 01-7 0zM21 19.25a1.75 1.75 0 100 3.5 1.75 1.75 0 000-3.5zM17.5 21a3.5 3.5 0 117 0 3.5 3.5 0 01-7 0z"/></svg>