<?xml version="1.0" encoding="iso-8859-1"?>
<!-- Generator: Adobe Illustrator 19.0.0, SVG Export Plug-In . SVG Version: 6.00 Build 0)  -->
<svg version="1.1" id="Capa_1" xmlns="http://www.w3.org/2000/svg" xmlns:xlink="http://www.w3.org/1999/xlink" x="0px" y="0px"
	 viewBox="0 0 426.667 426.667" style="enable-background:new 0 0 426.667 426.667;" xml:space="preserve">
<g>
	<g>
		<path d="M213.333,0C130.88,0,64,66.88,64,149.333c0,112,149.333,277.333,149.333,277.333s149.333-165.333,149.333-277.333
			C362.667,66.88,295.787,0,213.333,0z M213.333,42.667C236.907,42.667,256,61.76,256,85.333C256,108.907,236.907,128,213.333,128
			s-42.667-19.093-42.667-42.667C170.667,61.76,189.76,42.667,213.333,42.667z M213.333,256c-35.627,0-66.88-18.24-85.333-45.76
			c0.32-28.267,56.96-43.84,85.333-43.84s84.907,15.573,85.333,43.84C280.213,237.76,248.96,256,213.333,256z"/>
	</g>
</g>
<g>
</g>
<g>
</g>
<g>
</g>
<g>
</g>
<g>
</g>
<g>
</g>
<g>
</g>
<g>
</g>
<g>
</g>
<g>
</g>
<g>
</g>
<g>
</g>
<g>
</g>
<g>
</g>
<g>
</g>
</svg>
