<svg xmlns="http://www.w3.org/2000/svg" viewBox="0 0 24 24" aria-hidden="true"><path d="M12.003 0c-6.627 0-12 5.361-12 11.973 0 4.902 2.957 9.114 7.184 10.969-.033-.834-.006-1.84.209-2.748l1.542-6.526s-.385-.765-.385-1.892c0-1.775 1.028-3.1 2.314-3.1 1.093 0 1.618.817 1.618 1.795 0 1.096-.702 2.732-1.06 4.25-.3 1.272.637 2.303 1.896 2.303 2.271 0 3.803-2.913 3.803-6.366 0-2.624-1.773-4.586-4.993-4.586-3.637 0-5.909 2.71-5.909 5.736 0 1.042.311 1.78.793 2.346.22.262.252.369.172.668-.06.22-.188.749-.247.962-.08.305-.327.412-.6.3-1.677-.684-2.459-2.513-2.459-4.576 0-3.4 2.877-7.478 8.577-7.478 4.58 0 7.596 3.309 7.596 6.858 0 4.699-2.62 8.205-6.476 8.205-1.297 0-2.513-.7-2.93-1.491 0 0-.697 2.758-.847 3.292-.252.925-.75 1.845-1.205 2.566 1.104.325 2.25.49 3.401.492 6.627 0 12-5.361 12-11.973C23.997 5.367 18.63 0 12.003 0z" fill="#000" fill-rule="nonzero"/></svg>