<?xml version="1.0" encoding="UTF-8"?>
<svg width="20px" height="20px" viewBox="0 0 20 20" version="1.1" xmlns="http://www.w3.org/2000/svg" xmlns:xlink="http://www.w3.org/1999/xlink">
    <!-- Generator: Sketch 64 (93537) - https://sketch.com -->
    <title>search</title>
    <desc>Created with Sketch.</desc>
    <g id="Boutique" stroke="none" stroke-width="1" fill="none" fill-rule="evenodd">
        <g id="Search" transform="translate(-599.000000, -10.000000)" fill="#000000" fill-rule="nonzero">
            <g id="search" transform="translate(599.000000, 10.000000)">
                <path d="M13.0525,13.0525 C13.2869603,12.8177787 13.6051134,12.6858917 13.936875,12.6858917 C14.2686366,12.6858917 14.5867897,12.8177787 14.82125,13.0525 L19.63375,17.865 C20.1221768,18.3530817 20.1224566,19.1446982 19.634375,19.633125 C19.1462933,20.1215518 18.3546768,20.1218316 17.86625,19.63375 L13.05375,14.82125 C12.8190287,14.5867897 12.6871417,14.2686366 12.6871417,13.936875 C12.6871417,13.6051134 12.8190287,13.2869603 13.05375,13.0525 L13.0525,13.0525 Z" id="Path"></path>
                <path d="M8.125,15 C10.581201,15 12.8508242,13.6896324 14.0789247,11.5625 C15.3070252,9.43536761 15.3070252,6.81463239 14.0789247,4.68749997 C12.8508242,2.56036755 10.581201,1.25 8.125,1.25 C4.32804238,1.25 1.2500001,4.32804238 1.2500001,8.125 C1.2500001,11.9219576 4.32804238,15 8.125,15 Z M16.25,8.125 C16.25,12.6123136 12.6123136,16.25 8.125,16.25 C3.63768641,16.25 0,12.6123136 0,8.125 C0,3.63768641 3.63768641,2.22044605e-15 8.125,2.22044605e-15 C12.6123136,2.22044605e-15 16.25,3.63768641 16.25,8.125 Z" id="Shape"></path>
            </g>
        </g>
    </g>
</svg>