<svg xmlns="http://www.w3.org/2000/svg" xmlns:xlink="http://www.w3.org/1999/xlink" width="40" height="40" viewBox="0 0 40 40"><image overflow="visible" opacity=".1" width="39" height="39" xlink:href="5CBF449C.png" transform="translate(2 1)"/><g fill="#FFF"><path d="M22.9 22c-.4 0-.8.2-1.2.7V20h-1.1v8.4h1.1v-.6c.4.5.8.7 1.2.7.5 0 .8-.2.9-.7.1-.2.1-.7.1-1.2V24c0-.6 0-1-.1-1.3-.1-.4-.4-.7-.9-.7zm-.1 4.6c0 .6-.2.8-.5.8-.2 0-.4-.1-.6-.3v-3.8c.2-.2.4-.3.6-.3.3 0 .5.3.5.9v2.7zm3.7-4.6c-.6 0-1 .2-1.4.6-.2.3-.3.8-.3 1.5v2.2c0 .7.1 1.2.4 1.5.3.4.8.6 1.4.6.6 0 1.1-.2 1.4-.7.1-.2.2-.4.3-.7v-.9h-1.2v.8c-.1.3-.2.4-.5.4-.4 0-.6-.3-.6-.9v-1.1h2.3V24c0-.7-.1-1.1-.4-1.5-.3-.3-.8-.5-1.4-.5zm.6 2.5H26v-.6c0-.6.2-.9.6-.9.4 0 .6.3.6.9v.6h-.1zm-8.6 2.4c-.2.4-.5.5-.7.5-.2 0-.2-.1-.3-.3v-5h-1.1V27c0 .4 0 .7.1.9.1.3.3.5.7.5.4 0 .9-.3 1.3-.8v.7h1.1V22h-1.1v4.9zM20 15.7c.4 0 .5-.3.5-.9v-2.7c0-.6-.2-.9-.5-.9-.4 0-.5.3-.5.9v2.7c-.1.6.1.9.5.9zm-7.7 5.4h1.3v7.3h1.3v-7.3h1.3V20h-3.9z"/><path d="M28.4 6.5H12.1c-1.4 0-2.5.5-3.5 1.5s-1.4 2.1-1.4 3.5v16.4c0 1.4.5 2.5 1.4 3.5 1 1 2.1 1.4 3.5 1.4h16.4c1.4 0 2.5-.5 3.5-1.4 1-1 1.4-2.1 1.4-3.5V11.5c0-1.4-.5-2.5-1.4-3.5-1.1-1-2.2-1.5-3.6-1.5zm-5.8 3.8h1.1v5.1c0 .2.1.3.3.3.2 0 .5-.2.7-.5v-4.8h1.1v6.3h-1.1V16c-.5.5-.9.8-1.3.8s-.6-.2-.7-.5c-.1-.2-.1-.5-.1-.9v-5.1zm-4.3 2.1c0-.7.1-1.2.4-1.5.3-.4.7-.6 1.3-.6.6 0 1 .2 1.3.6.2.3.4.8.4 1.5v2.2c0 .7-.1 1.2-.4 1.5-.3.4-.8.6-1.3.6-.6 0-1-.2-1.3-.6-.2-.3-.4-.8-.4-1.5v-2.2zm-3.1-4.2l.9 3.3.9-3.3h1.3l-1.5 5v3.4h-1.3v-3.4c-.1-.6-.4-1.5-.8-2.7-.1-.3-.2-.7-.4-1.2s-.3-.9-.4-1.2l1.3.1zm14.1 20.5c-.1.5-.4.9-.7 1.2-.4.3-.8.5-1.3.6-1.6.2-3.9.3-7 .3s-5.5-.1-7-.3c-.5-.1-.9-.3-1.3-.6s-.6-.8-.7-1.2c-.2-1-.3-2.4-.3-4.4 0-2 .1-3.4.3-4.4.1-.5.4-.9.7-1.3.4-.3.8-.5 1.3-.6 1.5-.2 3.9-.3 7-.3s5.5.1 7 .3c.5.1.9.3 1.3.6s.6.8.7 1.3c.2.9.3 2.4.3 4.4 0 2-.1 3.5-.3 4.4z"/></g></svg>