<svg xmlns="http://www.w3.org/2000/svg" viewBox="0 0 24 19" aria-hidden="true"><path d="M24 2.251c-.9.387-1.853.642-2.828.757A4.835 4.835 0 0023.34.356a9.952 9.952 0 01-3.128 1.163A4.982 4.982 0 0016.616 0c-2.721 0-4.923 2.147-4.923 4.795-.002.368.04.735.127 1.093A14.087 14.087 0 011.67.876 4.697 4.697 0 001 3.286c0 1.662.877 3.131 2.2 3.992A4.915 4.915 0 01.961 6.68v.06c0 2.325 1.7 4.26 3.95 4.7-.423.111-.86.168-1.297.168-.31 0-.62-.03-.925-.09.625 1.906 2.446 3.291 4.602 3.33a10.048 10.048 0 01-6.116 2.054c-.393 0-.785-.024-1.175-.07A14.042 14.042 0 007.537 19c9.068 0 14.022-7.308 14.022-13.646 0-.208-.006-.416-.015-.619A9.87 9.87 0 0024 2.251z" fill="#000" fill-rule="nonzero"/></svg>